<svg id="Layer_1" data-name="Layer 1" xmlns="http://www.w3.org/2000/svg" viewBox="0 0 1080 1080"><defs><style>.cls-1{fill:#01b161;}.cls-2{fill:#fff;}</style></defs><rect class="cls-1" x="436.11" y="812.68" width="175.97" height="35.36"/><rect class="cls-1" x="396.6" y="860.67" width="175.97" height="35.36"/><rect class="cls-1" x="436.11" y="908.66" width="175.97" height="35.36"/><path class="cls-1" d="M776,385.43H733.87c4.2,42.07-3,89-25.63,139.12-46.69,72.72-124,126.1-149.64,212.44-1.69,5.69-5.16,11.75-10.91,14-4.51,1.8-9.14,1.57-13.87,1.45q-8-.19-15.93-.27-15.93-.13-31.86.22c-4.54.1-8.92.41-13.28-1.12a16.6,16.6,0,0,1-8.65-7.09,37.53,37.53,0,0,1-3.27-7.22c-25.66-86.34-103-139.72-149.64-212.44-73.43-163,15.23-291.68,131.69-331.16l.21-.08c2.06-.69,4.12-1.36,6.2-2l1.32-.39q5.08-1.53,10.21-2.83l3.08-.77q2.57-.62,5.14-1.19c2.35-.51,4.7-1,7.07-1.42,1.42-.27,2.86-.5,4.29-.74,1.73-.28,3.47-.55,5.2-.8,1.23-.18,2.45-.36,3.67-.52,2.74-.35,5.49-.63,8.23-.88,1.05-.1,2.1-.18,3.15-.26,2.72-.21,5.45-.38,8.18-.49l.88-.05.89.05c2.73.11,5.46.28,8.18.49,1.05.08,2.1.16,3.14.26,2.75.25,5.49.53,8.23.88,1.23.16,2.45.34,3.68.52,1.73.25,3.47.52,5.2.8,1.43.24,2.86.47,4.29.74,2.36.43,4.72.91,7.07,1.42q2.58.57,5.14,1.19l3.07.77q5.14,1.31,10.22,2.83l1.32.39q3.11,1,6.2,2l.21.08a244.71,244.71,0,0,1,52.77,25.34h68.26a259,259,0,0,0-68.66-53.56A247.46,247.46,0,0,0,517.16,136c-1.39,0-2.79,0-4.18,0-1.06,0-2.11,0-3.16,0h-.21c-1.06,0-2.11,0-3.16,0-1.4,0-2.79,0-4.18,0A247.54,247.54,0,0,0,390.5,165.17c-36.22,19.34-69.41,48.68-96.45,88.91q-4.76,6.64-9.1,13.57a284.94,284.94,0,0,0-30.58,66.71q-1.22,3.9-2.32,7.84-2.2,7.88-4,15.86T245,374.11a277.23,277.23,0,0,0-3.54,36.15h.19c-1.87,54.85,12.23,109.86,44.56,155.56C303.76,591,325.89,612.6,347,635l-.09.06C357.84,646.6,368.52,658.4,378,671A239.48,239.48,0,0,1,392.43,692c37.22,75.22,37.11,98.06,53.49,103.83h.18c16.31-.72,30.53-1,43-.92,7.49,0,14.32.16,20.58.34h.13c6.26-.18,13.09-.31,20.57-.34,12.45,0,26.67.2,43,.91h.16C589.89,790.1,589.77,767.26,627,692A239.38,239.38,0,0,1,641.38,671,440,440,0,0,1,672.53,635l-.09-.06c21.09-22.36,43.23-44,60.76-69.14,32.33-45.7,46.43-100.71,44.56-155.56H778C777.68,402,777,393.67,776,385.43Z"/><path class="cls-1" d="M585.22,357.86l-108.2,0H408.11v44.22h73.75V671.89h55.71V402.11h73.75V357.85Z"/><rect class="cls-2" x="685.83" y="293.21" width="50.08" height="50.08"/><rect class="cls-2" x="766.84" y="281.92" width="71.68" height="71.68"/><rect class="cls-2" x="721.67" y="232.57" width="35.35" height="35.35"/><rect class="cls-2" x="779.61" y="202.38" width="25.53" height="25.53"/></svg>